<?xml version="1.0" encoding="UTF-8"?>
<svg width="128pt" height="128pt" version="1.1" viewBox="0 0 128 128" xmlns="http://www.w3.org/2000/svg">
 <g fill="#829564">
  <path d="m55.875 66.062v31.5c0 4.0625-3.25 7.4375-7.3125 7.4375h-31.5c-4.0625 0-7.4375-3.375-7.4375-7.4375v-46.75c0-15.262 12.551-27.688 27.812-27.688h2.5c1.5234 0 2.6875 1.1641 2.6875 2.6875v9.5c0 1.5117-1.2266 2.75-2.75 2.75-8.3867 0-15.25 6.8633-15.25 15.25v5.4375h23.938c4.0625 0 7.3125 3.25 7.3125 7.3125z"/>
  <path d="m53.375 66.062v5.6875 11.988 10.898 2.6641 0.22656 0.039062c0 0.11328 0 0.23828-0.011719 0.35156 0 0.085937-0.011719 0.17578-0.011719 0.26172-0.011718 0.125-0.11328 0.41406 0 0.10156 0.125-0.35156-0.050781 0.21094-0.074218 0.33594-0.039063 0.16406-0.085938 0.32422-0.13672 0.48828-0.050781 0.16406-0.11328 0.3125-0.16406 0.47656-0.0625 0.14844-0.16406 0.17578 0 0.011719 0.19922-0.19922 0.011719-0.050781-0.050781 0.074219-0.16406 0.28906-0.32422 0.57422-0.5 0.85156-0.011719 0.023438-0.125 0.19922-0.13672 0.19922-0.023437 0 0.33594-0.375 0.13672-0.17578-0.14844 0.14844-0.28906 0.33594-0.4375 0.48828-0.11328 0.11328-0.23828 0.23828-0.35156 0.33594-0.085938 0.074218-0.5 0.33594-0.1875 0.17578 0.32422-0.17578-0.13672 0.085937-0.21094 0.13672-0.16406 0.10156-0.32422 0.19922-0.5 0.30078-0.050781 0.023437-0.41406 0.25-0.44922 0.22656-0.011718-0.011719 0.48828-0.1875 0.21094-0.085937-0.074219 0.023437-0.14844 0.0625-0.23828 0.085937-0.3125 0.11328-0.875 0.125-1.1367 0.28906 0 0 0.52344-0.050782 0.23828-0.023438-0.085937 0-0.17578 0.011719-0.26172 0.023438-0.17578 0.011718-0.35156 0.011718-0.52344 0.023437h-0.023437-0.21094-2.6367-10.875-12c-1.9141 0-3.8242 0.023438-5.7383 0-0.14844 0-0.28906 0-0.4375-0.011719-0.085938 0-0.17578-0.011718-0.26172-0.023437-0.17578-0.011719-0.21094-0.11328-0.011719 0 0.21094 0.125 0.14844 0.023437-0.011718-0.011719-0.11328-0.023437-0.22656-0.050781-0.33594-0.074218-0.1875-0.050782-0.38672-0.10156-0.57422-0.16406-0.085938-0.023437-0.60156-0.22656-0.25-0.085937 0.35156 0.14844-0.14844-0.074219-0.23828-0.125-0.32422-0.16406-0.625-0.36328-0.92578-0.5625-0.375-0.25 0.3125 0.28906-0.011719-0.023438-0.13672-0.13672-0.28906-0.26172-0.42578-0.39844-0.11328-0.11328-0.22656-0.23828-0.33594-0.36328-0.023438-0.023437-0.16406-0.16406-0.16406-0.1875-0.011719 0.039063 0.30078 0.4375 0.085937 0.11328-0.1875-0.27344-0.375-0.55078-0.52344-0.85156-0.074219-0.13672-0.125-0.33594-0.22656-0.44922 0.011719 0.011719 0.17578 0.46094 0.085938 0.21094-0.039062-0.11328-0.074219-0.21094-0.11328-0.3125-0.10156-0.28906-0.11328-0.82422-0.26172-1.0742 0 0 0.050781 0.52344 0.023438 0.23828-0.011719-0.085937-0.011719-0.17578-0.023438-0.26172-0.011719-0.17578-0.011719-0.35156-0.023438-0.52344v-0.074219-0.5625-6.7266-11.398-12.637-10.414-4.875c0-0.88672 0.039063-1.7734 0.125-2.6641 0.011719-0.17578 0.039063-0.33594 0.050782-0.51172 0.011718-0.085938 0.023437-0.17578 0.023437-0.25 0.023438-0.28906-0.039062 0.23828-0.039062 0.23828 0.074219-0.38672 0.125-0.78906 0.1875-1.1758 0.125-0.69922 0.28906-1.3867 0.46094-2.0625 0.1875-0.69922 0.39844-1.3984 0.64844-2.0859 0.11328-0.3125 0.22656-0.625 0.35156-0.9375 0.039063-0.085937 0.22656-0.60156 0.10156-0.23828-0.125 0.35156 0.085937-0.21094 0.13672-0.3125 0.58594-1.3125 1.2734-2.5625 2.0625-3.7617 0.375-0.57422 0.77344-1.125 1.1875-1.6758 0.16406-0.22656-0.13672 0.1875-0.13672 0.17578 0.011719-0.050781 0.11328-0.14844 0.14844-0.1875 0.10156-0.125 0.21094-0.25 0.3125-0.38672 0.25-0.30078 0.5-0.58594 0.75-0.875 0.9375-1.0391 1.9492-2 3.0234-2.8867 0.125-0.10156 0.25-0.21094 0.38672-0.3125 0.36328-0.30078-0.36328 0.26172 0.011719-0.011719 0.28906-0.21094 0.57422-0.42578 0.86328-0.625 0.58594-0.41406 1.1875-0.80078 1.8008-1.1641 0.61328-0.36328 1.25-0.69922 1.8867-1.0234 0.30078-0.14844 0.60156-0.28906 0.89844-0.42578 0.085938-0.039063 0.58594-0.26172 0.23828-0.10156-0.35156 0.14844 0.22656-0.085937 0.3125-0.125 1.3242-0.52344 2.6992-0.94922 4.0859-1.2617 0.72656-0.16406 1.4492-0.28906 2.1758-0.39844 0.28906-0.039062-0.23828 0.039062-0.23828 0.039062 0.085937 0 0.17578-0.023437 0.26172-0.023437 0.17578-0.023437 0.33594-0.039063 0.51172-0.050781 0.39844-0.039063 0.8125-0.074219 1.2109-0.085938 1-0.050781 1.9883-0.039062 2.9883-0.039062 0.33594 0 0.66406 0.011718 1 0 0 0 0.17578 0.011718 0.17578 0-0.050781 0.050781-0.46094-0.14844-0.25-0.039063 0.0625 0.023438 0.17578 0.050781 0.23828 0.0625 0.46094 0.10156-0.17578-0.011719-0.14844-0.0625 0 0 0.1875 0.11328 0.19922 0.125 0.22656 0.14844-0.19922-0.14844-0.1875-0.14844 0 0 0.16406 0.14844 0.16406 0.16406 0.19922 0.26172-0.28906-0.41406-0.10156-0.13672 0.011719 0.011718 0.125 0.19922 0.125 0.19922-0.039063 0.011719-0.13672-0.5-0.10156-0.22656 0.011719 0.085937 0.16406 0.625 0.074219 0.23828-0.074219-0.33594-0.011719-0.050781-0.023437 0.0625v0.58594 2.4609 5.6992 0.61328 0.085938 0.17578c0.011718-0.050781 0.011718-0.11328 0.023437-0.16406 0.039063-0.21094 0.023437-0.21094-0.011719 0-0.011718 0.023438-0.011718 0.050782-0.023437 0.074219-0.039063 0.125-0.023438 0.11328 0.039062-0.0625 0.074219-0.16406 0.085938-0.1875 0.023438-0.074219-0.023438 0.050782-0.050781 0.10156-0.074219 0.14844-0.011719 0.011718-0.125 0.21094-0.125 0.21094 0.011719 0 0.28906-0.41406 0.13672-0.1875l-0.17578 0.17578c-0.039063-0.039062 0.44922-0.25 0.1875-0.14844-0.0625 0.023437-0.14844 0.085937-0.21094 0.125-0.23828 0.14844-0.074219-0.050781 0 0.011719 0.050781-0.023438 0.10156-0.050782 0.14844-0.0625-0.050782 0.011718-0.11328 0.023437-0.16406 0.050781-0.050781 0.011719-0.11328 0.023437-0.16406 0.039063 0.11328-0.011719 0.21094-0.039063 0.32422-0.050782-0.16406-0.11328-0.9375 0.023438-1.1367 0.039063-0.375 0.023437-0.75 0.0625-1.1133 0.11328-3.3633 0.4375-6.3867 1.7266-9.0508 3.8242-2.4766 1.9492-4.2734 4.5625-5.4375 7.4766-0.92578 2.2891-1.1875 4.7266-1.1875 7.1641v4.5859c0 1.3516 1.1484 2.5 2.5 2.5h11.102c4.2266 0 8.4492-0.011719 12.676 0 0.27344 0 0.89844-0.10156 1.0391 0.050781-0.039062-0.050781-0.52344-0.085937-0.16406-0.011718 0.16406 0.039062 0.32422 0.0625 0.5 0.11328 0.23828 0.0625 0.47656 0.16406 0.71094 0.22656 0.33594 0.085937-0.55078-0.27344-0.0625-0.023438 0.125 0.0625 0.25 0.125 0.36328 0.1875 0.21094 0.11328 0.42578 0.23828 0.625 0.375-0.011718 0 0.26172 0.16406 0.26172 0.1875-0.26172-0.21094-0.32422-0.26172-0.1875-0.13672 0.0625 0.050781 0.125 0.10156 0.1875 0.16406 0.19922 0.17578 0.38672 0.375 0.57422 0.57422 0.023438 0.039063 0.21094 0.23828 0.21094 0.25 0.011718-0.023437-0.33594-0.5-0.050782-0.050781 0.14844 0.22656 0.30078 0.44922 0.42578 0.69922 0.050781 0.10156 0.10156 0.19922 0.14844 0.28906 0.23828 0.47656 0.011719-0.0625-0.023437-0.0625 0.074218 0 0.23828 0.71094 0.26172 0.78906 0.023438 0.11328 0.050782 0.21094 0.074219 0.32422 0.011719 0.085937 0.039063 0.16406 0.050781 0.25 0.039063 0.1875 0.023438 0.11328-0.023437-0.23828 0.13281-0.015624 0.082031 0.64844 0.082031 0.77344 0.011719 1.3125 1.1367 2.5625 2.5 2.5 1.3359-0.0625 2.5117-1.1016 2.5-2.5-0.023438-2.5-0.94922-4.8633-2.6367-6.7109-1.6758-1.8359-4.0234-2.8359-6.4766-3.0742-1.3125-0.125-2.6641-0.039063-3.9766-0.039063h-16.137-4.5117c0.83594 0.83594 1.6641 1.6641 2.5 2.5v-4.8516-0.58594c0-0.32422 0.011719-0.63672 0.023437-0.96094 0.011719-0.19922 0.023438-0.39844 0.050782-0.60156 0.011718-0.085937 0.023437-0.17578 0.023437-0.26172 0.039063-0.35156-0.085937 0.5-0.023437 0.14844 0.13672-0.72656 0.27344-1.4375 0.5-2.1367 0.11328-0.35156 0.22656-0.6875 0.36328-1.0234 0.023437-0.074219 0.0625-0.14844 0.085937-0.23828 0.10156-0.26172-0.085937 0.22656-0.085937 0.21094-0.039063-0.074219 0.21094-0.44922 0.25-0.52344 0.32422-0.66406 0.69922-1.3125 1.1133-1.9258 0.085938-0.13672 0.1875-0.26172 0.28906-0.39844 0.26172-0.375-0.28906 0.33594 0.011719-0.011719 0.23828-0.30078 0.48828-0.58594 0.75-0.875 0.48828-0.52344 1-1.0117 1.5508-1.4609 0.0625-0.050782 0.125-0.10156 0.1875-0.14844 0.21094-0.17578-0.1875 0.14844-0.17578 0.13672 0.011719-0.074219 0.33594-0.25 0.39844-0.28906 0.3125-0.22656 0.63672-0.42578 0.96094-0.625 0.3125-0.1875 0.625-0.35156 0.9375-0.51172 0.14844-0.074219 0.30078-0.13672 0.44922-0.21094 0.023437-0.011719 0.19922-0.11328 0.22656-0.10156-0.050782-0.023438-0.5 0.19922-0.13672 0.0625 0.67578-0.26172 1.3633-0.48828 2.0742-0.66406 0.36328-0.085937 0.71094-0.16406 1.0742-0.22656 0.074219-0.011718 0.17578-0.011718 0.25-0.039062 0 0-0.52344 0.0625-0.23828 0.039062 0.22656-0.023437 0.46094-0.050781 0.6875-0.0625 0.89844-0.0625 1.8359 0.011719 2.7109-0.28906 2.1875-0.73828 3.6133-2.6992 3.6758-5 0.011718-0.4375 0-0.86328 0-1.3008v-6.0625c0-2.1484 0.125-4.3984-1.6875-5.9766-1.2617-1.1016-2.7109-1.3516-4.3242-1.3516-1 0-2-0.011719-2.9883 0.023437-6.4375 0.30078-12.5 2.6367-17.562 6.6016-4.7734 3.7383-8.3359 9-10.125 14.789-1.0078 3.2773-1.3086 6.6523-1.3086 10.066v8.0117 12.148 12.688 9.6367c0 2.1641-0.17578 4.4375 0.66406 6.4883 1.4766 3.6016 4.625 5.9766 8.4883 6.3984 0.71094 0.074219 1.4375 0.039063 2.1484 0.039063h9.875 12.637 7.4375c5.5508-0.011719 9.9766-4.5234 9.9883-10.051 0.011719-2.3867 0-4.7891 0-7.1758v-12.602-10.074-1.5391c0-1.3125-1.1484-2.5625-2.5-2.5-1.3398 0.054688-2.4883 1.0938-2.4883 2.4922z"/>
  <path d="m118.25 66.062v31.5c0 4.0625-3.25 7.4375-7.3125 7.4375h-31.5c-4.0625 0-7.4375-3.375-7.4375-7.4375v-46.75c0-15.262 12.551-27.688 27.812-27.688h2.5c1.5234 0 2.6875 1.1641 2.6875 2.6875v9.5c0 1.5117-1.2266 2.75-2.75 2.75-8.3867 0-15.25 6.8633-15.25 15.25v5.4375h23.938c4.0625 0 7.3125 3.25 7.3125 7.3125z"/>
  <path d="m115.75 66.062v5.6875 11.988 10.898 2.6641 0.22656 0.039062c0 0.11328 0 0.23828-0.011719 0.35156 0 0.085937-0.011719 0.17578-0.011719 0.26172-0.011718 0.125-0.11328 0.41406 0 0.10156 0.125-0.35156-0.050781 0.21094-0.074218 0.33594-0.039063 0.16406-0.085938 0.32422-0.13672 0.48828-0.050781 0.16406-0.11328 0.3125-0.16406 0.47656-0.0625 0.14844-0.16406 0.17578 0 0.011719 0.19922-0.19922 0.011719-0.050781-0.050781 0.074219-0.16406 0.28906-0.32422 0.57422-0.5 0.85156-0.011719 0.023438-0.125 0.19922-0.13672 0.19922-0.023437 0 0.33594-0.375 0.13672-0.17578-0.14844 0.14844-0.28906 0.33594-0.4375 0.48828-0.11328 0.11328-0.23828 0.23828-0.35156 0.33594-0.085938 0.074218-0.5 0.33594-0.1875 0.17578 0.32422-0.17578-0.13672 0.085937-0.21094 0.13672-0.16406 0.10156-0.32422 0.19922-0.5 0.30078-0.050781 0.023437-0.41406 0.25-0.44922 0.22656-0.011718-0.011719 0.48828-0.1875 0.21094-0.085937-0.074219 0.023437-0.14844 0.0625-0.23828 0.085937-0.3125 0.11328-0.875 0.125-1.1367 0.28906 0 0 0.52344-0.050782 0.23828-0.023438-0.085937 0-0.17578 0.011719-0.26172 0.023438-0.17578 0.011718-0.35156 0.011718-0.52344 0.023437h-0.023437-0.21094-2.6367-10.875-12c-1.9141 0-3.8242 0.023438-5.7383 0-0.14844 0-0.28906 0-0.4375-0.011719-0.085938 0-0.17578-0.011718-0.26172-0.023437-0.17578-0.011719-0.21094-0.11328-0.011719 0 0.21094 0.125 0.14844 0.023437-0.011718-0.011719-0.11328-0.023437-0.22656-0.050781-0.33594-0.074218-0.1875-0.050782-0.38672-0.10156-0.57422-0.16406-0.085938-0.023437-0.60156-0.22656-0.25-0.085937 0.35156 0.14844-0.14844-0.074219-0.23828-0.125-0.32422-0.16406-0.625-0.36328-0.92578-0.5625-0.375-0.25 0.3125 0.28906-0.011719-0.023438-0.13672-0.13672-0.28906-0.26172-0.42578-0.39844-0.11328-0.11328-0.22656-0.23828-0.33594-0.36328-0.023438-0.023437-0.16406-0.16406-0.16406-0.1875-0.011719 0.039063 0.30078 0.4375 0.085937 0.11328-0.1875-0.27344-0.375-0.55078-0.52344-0.85156-0.074219-0.13672-0.125-0.33594-0.22656-0.44922 0.011719 0.011719 0.17578 0.46094 0.085938 0.21094-0.039062-0.11328-0.074219-0.21094-0.11328-0.3125-0.10156-0.28906-0.11328-0.82422-0.26172-1.0742 0 0 0.050781 0.52344 0.023438 0.23828-0.011719-0.085937-0.011719-0.17578-0.023438-0.26172-0.011719-0.17578-0.011719-0.35156-0.023438-0.52344v-0.074219-0.5625-6.7266-11.398-12.637-10.414-4.875c0-0.88672 0.039063-1.7734 0.125-2.6641 0.011719-0.17578 0.039063-0.33594 0.050782-0.51172 0.011718-0.085938 0.023437-0.17578 0.023437-0.25 0.023438-0.28906-0.039062 0.23828-0.039062 0.23828 0.074219-0.38672 0.125-0.78906 0.1875-1.1758 0.125-0.69922 0.28906-1.3867 0.46094-2.0625 0.1875-0.69922 0.39844-1.3984 0.64844-2.0859 0.11328-0.3125 0.22656-0.625 0.35156-0.9375 0.039063-0.085937 0.22656-0.60156 0.10156-0.23828-0.125 0.35156 0.085937-0.21094 0.13672-0.3125 0.58594-1.3125 1.2734-2.5625 2.0625-3.7617 0.375-0.57422 0.77344-1.125 1.1875-1.6758 0.16406-0.22656-0.13672 0.1875-0.13672 0.17578 0.011719-0.050781 0.11328-0.14844 0.14844-0.1875 0.10156-0.125 0.21094-0.25 0.3125-0.38672 0.25-0.30078 0.5-0.58594 0.75-0.875 0.9375-1.0391 1.9492-2 3.0234-2.8867 0.125-0.10156 0.25-0.21094 0.38672-0.3125 0.36328-0.30078-0.36328 0.26172 0.011719-0.011719 0.28906-0.21094 0.57422-0.42578 0.86328-0.625 0.58594-0.41406 1.1875-0.80078 1.8008-1.1641 0.61328-0.36328 1.25-0.69922 1.8867-1.0234 0.30078-0.14844 0.60156-0.28906 0.89844-0.42578 0.085938-0.039063 0.58594-0.26172 0.23828-0.10156-0.35156 0.14844 0.22656-0.085937 0.3125-0.125 1.3242-0.52344 2.6992-0.94922 4.0859-1.2617 0.72656-0.16406 1.4492-0.28906 2.1758-0.39844 0.28906-0.039062-0.23828 0.039062-0.23828 0.039062 0.085937 0 0.17578-0.023437 0.26172-0.023437 0.17578-0.023437 0.33594-0.039063 0.51172-0.050781 0.39844-0.039063 0.8125-0.074219 1.2109-0.085938 1-0.050781 1.9883-0.039062 2.9883-0.039062 0.33594 0 0.66406 0.011718 1 0 0 0 0.17578 0.011718 0.17578 0-0.050781 0.050781-0.46094-0.14844-0.25-0.039063 0.0625 0.023438 0.17578 0.050781 0.23828 0.0625 0.46094 0.10156-0.17578-0.011719-0.14844-0.0625 0 0 0.1875 0.11328 0.19922 0.125 0.22656 0.14844-0.19922-0.14844-0.1875-0.14844 0 0 0.16406 0.14844 0.16406 0.16406 0.19922 0.26172-0.28906-0.41406-0.10156-0.13672 0.011719 0.011718 0.125 0.19922 0.125 0.19922-0.039063 0.011719-0.13672-0.5-0.10156-0.22656 0.011719 0.085937 0.16406 0.625 0.074219 0.23828-0.074219-0.33594-0.011719-0.050781-0.023437 0.0625v0.58594 2.4609 5.6992 0.61328 0.085938 0.17578c0.011718-0.050781 0.011718-0.11328 0.023437-0.16406 0.039063-0.21094 0.023437-0.21094-0.011719 0-0.011718 0.023438-0.011718 0.050782-0.023437 0.074219-0.039063 0.125-0.023438 0.11328 0.039062-0.0625 0.074219-0.16406 0.085938-0.1875 0.023438-0.074219-0.023438 0.050782-0.050781 0.10156-0.074219 0.14844-0.011719 0.011718-0.125 0.21094-0.125 0.21094 0.011719 0 0.28906-0.41406 0.13672-0.1875l-0.17578 0.17578c-0.039063-0.039062 0.44922-0.25 0.1875-0.14844-0.0625 0.023437-0.14844 0.085937-0.21094 0.125-0.23828 0.14844-0.074219-0.050781 0 0.011719 0.050781-0.023438 0.10156-0.050782 0.14844-0.0625-0.050782 0.011718-0.11328 0.023437-0.16406 0.050781-0.050781 0.011719-0.11328 0.023437-0.16406 0.039063 0.11328-0.011719 0.21094-0.039063 0.32422-0.050782-0.16406-0.11328-0.9375 0.023438-1.1367 0.039063-0.375 0.023437-0.75 0.0625-1.1133 0.11328-3.3633 0.4375-6.3867 1.7266-9.0508 3.8242-2.4766 1.9492-4.2734 4.5625-5.4375 7.4766-0.92578 2.2891-1.1875 4.7266-1.1875 7.1641v4.5859c0 1.3516 1.1484 2.5 2.5 2.5h11.102c4.2266 0 8.4492-0.011719 12.676 0 0.27344 0 0.89844-0.10156 1.0391 0.050781-0.039062-0.050781-0.52344-0.085937-0.16406-0.011718 0.16406 0.039062 0.32422 0.0625 0.5 0.11328 0.23828 0.0625 0.47656 0.16406 0.71094 0.22656 0.33594 0.085937-0.55078-0.27344-0.0625-0.023438 0.125 0.0625 0.25 0.125 0.36328 0.1875 0.21094 0.11328 0.42578 0.23828 0.625 0.375-0.011718 0 0.26172 0.16406 0.26172 0.1875-0.26172-0.21094-0.32422-0.26172-0.1875-0.13672 0.0625 0.050781 0.125 0.10156 0.1875 0.16406 0.19922 0.17578 0.38672 0.375 0.57422 0.57422 0.023438 0.039063 0.21094 0.23828 0.21094 0.25 0.011718-0.023437-0.33594-0.5-0.050782-0.050781 0.14844 0.22656 0.30078 0.44922 0.42578 0.69922 0.050781 0.10156 0.10156 0.19922 0.14844 0.28906 0.23828 0.47656 0.011719-0.0625-0.023437-0.0625 0.074218 0 0.23828 0.71094 0.26172 0.78906 0.023438 0.11328 0.050782 0.21094 0.074219 0.32422 0.011719 0.085937 0.039063 0.16406 0.050781 0.25 0.039063 0.1875 0.023438 0.11328-0.023437-0.23828 0.13281-0.015624 0.082031 0.64844 0.082031 0.77344 0.011719 1.3125 1.1367 2.5625 2.5 2.5 1.3359-0.0625 2.5117-1.1016 2.5-2.5-0.023438-2.5-0.94922-4.8633-2.6367-6.7109-1.6758-1.8359-4.0234-2.8359-6.4766-3.0742-1.3125-0.125-2.6641-0.039063-3.9766-0.039063h-16.137-4.5117c0.83594 0.83594 1.6641 1.6641 2.5 2.5v-4.8516-0.58594c0-0.32422 0.011719-0.63672 0.023437-0.96094 0.011719-0.19922 0.023438-0.39844 0.050782-0.60156 0.011718-0.085937 0.023437-0.17578 0.023437-0.26172 0.039063-0.35156-0.085937 0.5-0.023437 0.14844 0.13672-0.72656 0.27344-1.4375 0.5-2.1367 0.11328-0.35156 0.22656-0.6875 0.36328-1.0234 0.023437-0.074219 0.0625-0.14844 0.085937-0.23828 0.10156-0.26172-0.085937 0.22656-0.085937 0.21094-0.039063-0.074219 0.21094-0.44922 0.25-0.52344 0.32422-0.66406 0.69922-1.3125 1.1133-1.9258 0.085938-0.13672 0.1875-0.26172 0.28906-0.39844 0.26172-0.375-0.28906 0.33594 0.011719-0.011719 0.23828-0.30078 0.48828-0.58594 0.75-0.875 0.48828-0.52344 1-1.0117 1.5508-1.4609 0.0625-0.050782 0.125-0.10156 0.1875-0.14844 0.21094-0.17578-0.1875 0.14844-0.17578 0.13672 0.011719-0.074219 0.33594-0.25 0.39844-0.28906 0.3125-0.22656 0.63672-0.42578 0.96094-0.625 0.3125-0.1875 0.625-0.35156 0.9375-0.51172 0.14844-0.074219 0.30078-0.13672 0.44922-0.21094 0.023437-0.011719 0.19922-0.11328 0.22656-0.10156-0.050782-0.023438-0.5 0.19922-0.13672 0.0625 0.67578-0.26172 1.3633-0.48828 2.0742-0.66406 0.36328-0.085937 0.71094-0.16406 1.0742-0.22656 0.074219-0.011718 0.17578-0.011718 0.25-0.039062 0 0-0.52344 0.0625-0.23828 0.039062 0.22656-0.023437 0.46094-0.050781 0.6875-0.0625 0.89844-0.0625 1.8359 0.011719 2.7109-0.28906 2.1875-0.73828 3.6133-2.6992 3.6758-5 0.011718-0.4375 0-0.86328 0-1.3008v-6.0625c0-2.1484 0.125-4.3984-1.6875-5.9766-1.2617-1.1016-2.7109-1.3516-4.3242-1.3516-1 0-2-0.011719-2.9883 0.023437-6.4375 0.30078-12.5 2.6367-17.562 6.6016-4.7734 3.7383-8.3359 9-10.125 14.789-1.0117 3.2617-1.3125 6.6484-1.3125 10.051v8.0117 12.148 12.688 9.6367c0 2.1641-0.17578 4.4375 0.66406 6.4883 1.4766 3.6016 4.625 5.9766 8.4883 6.3984 0.71094 0.074219 1.4375 0.039063 2.1484 0.039063h9.875 12.637 7.4375c5.5508-0.011719 9.9766-4.5234 9.9883-10.051 0.011719-2.3867 0-4.7891 0-7.1758v-12.602-10.074-1.5391c0-1.3125-1.1484-2.5625-2.5-2.5-1.3359 0.070312-2.4844 1.1094-2.4844 2.5078z"/>
 </g>
</svg>
